/* XPM */
static char *bitzeny64[] = {
/* columns rows colors chars-per-pixel */
"64 64 256 2 ",
"   c black",
".  c #010101",
"X  c #020202",
"o  c gray1",
"O  c #040404",
"+  c gray2",
"@  c #060606",
"#  c #070707",
"$  c gray3",
"%  c #090909",
"&  c gray4",
"*  c #0B0B0B",
"=  c #0C0C0C",
"-  c gray5",
";  c #0E0E0E",
":  c gray6",
">  c #101010",
",  c #111111",
"<  c gray7",
"1  c #131313",
"2  c gray8",
"3  c #151515",
"4  c #161616",
"5  c gray9",
"6  c #181818",
"7  c #191919",
"8  c gray10",
"9  c #1B1B1B",
"0  c gray11",
"q  c #1D1D1D",
"w  c #1E1E1E",
"e  c gray12",
"r  c #202020",
"t  c gray13",
"y  c #222222",
"u  c #232323",
"i  c gray14",
"p  c #252525",
"a  c gray15",
"s  c #272727",
"d  c #282828",
"f  c gray16",
"g  c #2A2A2A",
"h  c gray17",
"j  c #2C2C2C",
"k  c #2D2D2D",
"l  c gray18",
"z  c #2F2F2F",
"x  c gray19",
"c  c #313131",
"v  c #323232",
"b  c gray20",
"n  c #343434",
"m  c #353535",
"M  c gray21",
"N  c #373737",
"B  c gray22",
"V  c #393939",
"C  c #3A3A3A",
"Z  c gray23",
"A  c #3C3C3C",
"S  c gray24",
"D  c #3E3E3E",
"F  c #3F3F3F",
"G  c gray25",
"H  c #414141",
"J  c gray26",
"K  c #434343",
"L  c #444444",
"P  c gray27",
"I  c #464646",
"U  c gray28",
"Y  c #484848",
"T  c #494949",
"R  c gray29",
"E  c #4B4B4B",
"W  c #4C4C4C",
"Q  c gray30",
"!  c #4E4E4E",
"~  c gray31",
"^  c #505050",
"/  c #515151",
"(  c gray32",
")  c #535353",
"_  c gray33",
"`  c #555555",
"'  c #565656",
"]  c gray34",
"[  c #585858",
"{  c gray35",
"}  c #5A5A5A",
"|  c #5B5B5B",
" . c gray36",
".. c #5D5D5D",
"X. c gray37",
"o. c #5F5F5F",
"O. c #606060",
"+. c gray38",
"@. c #626262",
"#. c gray39",
"$. c #646464",
"%. c #656565",
"&. c gray40",
"*. c #676767",
"=. c #686868",
"-. c DimGray",
";. c #6A6A6A",
":. c gray42",
">. c #6C6C6C",
",. c #6D6D6D",
"<. c gray43",
"1. c #6F6F6F",
"2. c gray44",
"3. c #717171",
"4. c #727272",
"5. c gray45",
"6. c #747474",
"7. c gray46",
"8. c #767676",
"9. c #777777",
"0. c gray47",
"q. c #797979",
"w. c gray48",
"e. c #7B7B7B",
"r. c #7C7C7C",
"t. c gray49",
"y. c #7E7E7E",
"u. c gray50",
"i. c #808080",
"p. c #818181",
"a. c gray51",
"s. c #838383",
"d. c #848484",
"f. c gray52",
"g. c #868686",
"h. c gray53",
"j. c #888888",
"k. c #898989",
"l. c gray54",
"z. c #8B8B8B",
"x. c gray55",
"c. c #8D8D8D",
"v. c #8E8E8E",
"b. c gray56",
"n. c #909090",
"m. c gray57",
"M. c #929292",
"N. c #939393",
"B. c gray58",
"V. c #959595",
"C. c gray59",
"Z. c #979797",
"A. c #989898",
"S. c gray60",
"D. c #9A9A9A",
"F. c #9B9B9B",
"G. c gray61",
"H. c #9D9D9D",
"J. c gray62",
"K. c #9F9F9F",
"L. c #A0A0A0",
"P. c gray63",
"I. c #A2A2A2",
"U. c gray64",
"Y. c #A4A4A4",
"T. c #A5A5A5",
"R. c gray65",
"E. c #A7A7A7",
"W. c gray66",
"Q. c #A9A9A9",
"!. c #AAAAAA",
"~. c gray67",
"^. c #ACACAC",
"/. c gray68",
"(. c #AEAEAE",
"). c #AFAFAF",
"_. c gray69",
"`. c #B1B1B1",
"'. c #B2B2B2",
"]. c gray70",
"[. c #B4B4B4",
"{. c gray71",
"}. c #B6B6B6",
"|. c #B7B7B7",
" X c gray72",
".X c #B9B9B9",
"XX c gray73",
"oX c #BBBBBB",
"OX c #BCBCBC",
"+X c gray74",
"@X c gray",
"#X c gray75",
"$X c #C0C0C0",
"%X c #C1C1C1",
"&X c gray76",
"*X c #C3C3C3",
"=X c gray77",
"-X c #C5C5C5",
";X c #C6C6C6",
":X c gray78",
">X c #C8C8C8",
",X c gray79",
"<X c #CACACA",
"1X c #CBCBCB",
"2X c gray80",
"3X c #CDCDCD",
"4X c #CECECE",
"5X c gray81",
"6X c #D0D0D0",
"7X c gray82",
"8X c #D2D2D2",
"9X c LightGray",
"0X c gray83",
"qX c #D5D5D5",
"wX c gray84",
"eX c #D7D7D7",
"rX c #D8D8D8",
"tX c gray85",
"yX c #DADADA",
"uX c gray86",
"iX c gainsboro",
"pX c #DDDDDD",
"aX c gray87",
"sX c #DFDFDF",
"dX c gray88",
"fX c #E1E1E1",
"gX c #E2E2E2",
"hX c gray89",
"jX c #E4E4E4",
"kX c gray90",
"lX c #E6E6E6",
"zX c #E7E7E7",
"xX c gray91",
"cX c #E9E9E9",
"vX c #EAEAEA",
"bX c gray92",
"nX c #ECECEC",
"mX c gray93",
"MX c #EEEEEE",
"NX c #EFEFEF",
"BX c gray94",
"VX c #F1F1F1",
"CX c gray95",
"ZX c #F3F3F3",
"AX c #F4F4F4",
"SX c gray96",
"DX c #F6F6F6",
"FX c gray97",
"GX c #F8F8F8",
"HX c #F9F9F9",
"JX c gray98",
"KX c #FBFBFB",
"LX c gray99",
"PX c #FDFDFD",
"IX c #FEFEFE",
"UX c white",
/* pixels */
"~ ~ ~ ~ ~ ~ ~ ~ ~ ~ ~ ~ ~ ~ ~ ~ ~ ~ ~ ~ ~ ~ ~ ~ ~ ~ ~ ~ ~ ~ ~ ~ ~ ~ ~ ~ ~ ~ ~ ~ ~ ~ ~ ~ ~ ~ ~ ~ ~ ~ ~ ~ ~ ~ ~ ~ ~ ~ ~ ~ ~ ~ ~ ~ ",
"~ ~ ~ ~ ~ ~ ~ ~ ~ ~ ~ ~ ~ ~ ~ ~ ~ ~ ~ ~ ~ ~ ~ ~ ~ ~ ~ ~ ~ ~ ~ ~ ~ ~ ~ ~ ~ ~ ~ ~ ~ ~ ~ ~ ~ ~ ~ ~ ~ ~ ~ ~ ~ ~ ~ ~ ~ ~ ~ ~ ~ ~ ~ ~ ",
"~ ~ ~ ~ ~ ~ ~ ~ ~ ~ ~ ~ ~ ~ ~ ~ ~ ~ ~ ~ ~ ~ ~ ~ ~ ~ ~ ~ ~ ~ ~ ~ ~ ~ ~ ~ ~ ~ ~ ~ ~ ~ ~ ~ ~ ~ ~ ~ ~ ~ ~ ~ ~ ~ ~ ~ ~ ~ ~ ~ ~ ~ ~ ~ ",
"~ ~ ~ ~ ~ ~ ~ ~ ~ ~ ~ ~ ~ ~ ~ ~ ~ ~ ~ ~ ~ ~ ~ ~ ~ ~ ~ ~ ~ ~ ~ ~ ~ ~ ~ ~ ~ ~ ~ ~ ~ ~ ~ ~ ~ ~ ~ ~ ~ ~ ~ ~ ~ ~ ~ ~ ~ ~ ~ ~ ~ ~ ~ ~ ",
"~ ~ ~ ~ ~ ~ ~ ~ ~ ~ ~ ~ ~ ~ ~ ~ ~ ~ ~ ~ ~ ~ ~ ~ ~ ~ / ( ( ( / / / / ( ( ( / ~ ~ ~ ~ ~ ~ ~ ~ ~ ~ ~ ~ ~ ~ ~ ~ ~ ~ ~ ~ ~ ~ ~ ~ ~ ~ ",
"~ ~ ~ ~ ~ ~ ~ ~ ~ ~ ~ ~ ~ ~ ~ ~ ~ ~ ~ ~ ~ ~ ~ / ( ! Y L J K I U U I K J L Y ! ( / ~ ~ ~ ~ ~ ~ ~ ~ ~ ~ ~ ~ ~ ~ ~ ~ ~ ~ ~ ~ ~ ~ ~ ",
"~ ~ ~ ~ ~ ~ ~ ~ ~ ~ ~ ~ ~ ~ ~ ~ ~ ~ ~ ~ ^ ( ! P K ( ,.c.W.+X<X7X7X<X+XW.c.,.( K P ! ( ^ ~ ~ ~ ~ ~ ~ ~ ~ ~ ~ ~ ~ ~ ~ ~ ~ ~ ~ ~ ~ ",
"~ ~ ~ ~ ~ ~ ~ ~ ~ ~ ~ ~ ~ ~ ~ ~ ~ ~ ~ ( Q J / p.oXzXUXUXUXUXUXUXUXUXUXUXUXUXxXoXp./ J Q ( ~ ~ ~ ~ ~ ~ ~ ~ ~ ~ ~ ~ ~ ~ ~ ~ ~ ~ ~ ",
"~ ~ ~ ~ ~ ~ ~ ~ ~ ~ ~ ~ ~ ~ ~ ~ ~ / ~ J [ L.zXUXUXUXUXPXLXLXPXPXPXPXLXLXPXUXUXUXUXzXL.[ J ~ / ~ ~ ~ ~ ~ ~ ~ ~ ~ ~ ~ ~ ~ ~ ~ ~ ~ ",
"~ ~ ~ ~ ~ ~ ~ ~ ~ ~ ~ ~ ~ ~ ~ ~ / U E S.BXUXUXLXLXPXIXIXIXIXIXIXIXUXUXUXUXUXIXLXPXUXUXBXD.W U ( ~ ~ ~ ~ ~ ~ ~ ~ ~ ~ ~ ~ ~ ~ ~ ~ ",
"~ ~ ~ ~ ~ ~ ~ ~ ~ ~ ~ ~ ~ ~ ~ ^ P 2.aXUXUXIXUXUXUXUXUXUXUXUXUXUXUXUXIXPXLXPXUXUXUXIXLXUXUXiX<.J / ^ ~ ~ ~ ~ ~ ~ ~ ~ ~ ~ ~ ~ ~ ~ ",
"~ ~ ~ ~ ~ ~ ~ ~ ~ ~ ~ ~ ~ ~ ^ R c.GXUXZXSXDXDXDXDXDXDXDXDXDXDXDXFXKXUXUXUXUXUXLXIXUXUXIXLXUXUXC.L ~ ^ ~ ~ ~ ~ ~ ~ ~ ~ ~ ~ ~ ~ ~ ",
"~ ~ ~ ~ ~ ~ ~ ~ ~ ~ ~ ~ ~ ~ ~ ~ &.+. .o.o.o.o.o.o.o.o.o.o.o.o.o.o.%.5.x._.iXUXUXUXLXIXUXUXLXUXUX[.U ! ^ ~ ~ ~ ~ ~ ~ ~ ~ ~ ~ ~ ~ ",
"~ ~ ~ ~ ~ ~ ~ ~ ~ ~ ~ ~ ~ ~ ~ ~ R R E E E E E E E E E E E E E E E R U L J E >.^.VXUXUXPXUXUXIXLXUX#XY ~ ^ ~ ~ ~ ~ ~ ~ ~ ~ ~ ~ ~ ",
"~ ~ ~ ~ ~ ~ ~ ~ ~ ~ ~ / ( ( ( ( ) ) ) ^ ^ ^ ^ ^ ^ ^ ^ ^ ^ ^ ^ ^ ^ ^ / ( ( ^ Y J [ E.LXUXLXUXUXUXKXUXoXP / ~ ~ ~ ~ ~ ~ ~ ~ ~ ~ ~ ",
"~ ~ ~ ~ ~ ~ ~ ~ ~ ~ / T H J J J J J H Q ~ ~ ~ ~ ~ ~ ~ ~ ~ ~ ~ ~ ~ ~ ~ ~ ~ ~ ^ ( Q H *.eXUXPXUXUXUXLXUXY.J ( ~ ~ ~ ~ ~ ~ ~ ~ ~ ~ ",
"~ ~ ~ ~ ~ ~ ~ ~ ~ / U 5.W.L.P.I.P.P.!.%.E ^ ~ ~ ~ ~ ~ ~ ~ ~ ~ ~ ~ ~ ~ ~ ~ ~ ~ ~ ^ ) Y T [.UXIXIXUXIXIXUXu.P ( ~ ~ ~ ~ ~ ~ ~ ~ ~ ",
"~ ~ ~ ~ ~ ~ ~ ~ ^ W ] NXUXUXUXUXUXUX_.! ~ ~ ~ ~ ~ ~ ~ ~ ~ ~ ~ ~ ~ ~ ~ ~ ~ ~ ~ ~ ~ ~ / ~ H U.UXPXUXUXPXUXNX[ W ^ ~ ~ ~ ~ ~ ~ ~ ~ ",
"~ ~ ~ ~ ~ ~ ~ ~ ( K |.UXHXLXLXHXUXR.D ~ ~ ~ ~ ~ ~ ~ ~ ~ ~ ~ ~ ~ ~ ~ ~ ~ ~ ~ ~ ~ ~ ~ ~ ^ / H Q.UXLXUXUXKXUX|.K ( ~ ~ ~ ~ ~ ~ ~ ~ ",
"~ ~ ~ ~ ~ ~ ~ / Y 1.UXUXUXUXLXUX*XL / ^ ~ ~ ~ ~ / ( ( ( ( ( ( ( ( ( ( ( ( ( ( / ~ ~ ~ ~ ^ / L *XUXLXUXUXIXUX1.Y / ~ ~ ~ ~ ~ ~ ~ ",
"~ ~ ~ ~ ~ ~ ~ / L -XUXLXUXPXUXvX_ Q ^ ~ ~ ~ ~ / Y J J J J J J J J J J J J K J U / ^ ~ ~ ~ ^ Q _ vXUXPXUXLXUX-XP / ~ ~ ~ ~ ~ ~ ~ ",
"~ ~ ~ ~ ~ ~ ^ T ;.UXUXUXUXPXUXa.L ( ~ ~ ~ ~ ^ P ,.Y.].'.'.'.'.'.'.'.'.'.'.].Q.9.I ! ^ ~ ~ ~ ( L a.UXPXUXUXUXUX;.T ^ ~ ~ ~ ~ ~ ~ ",
"~ ~ ~ ~ ~ ~ ( J ^.UXLXUXPXUX3XI / ~ ~ ~ ~ ^ U Y.UXUXUXUXUXUXUXUXUXUXUXUXUXUXUXUX XE ~ ~ ~ ~ ~ / I 3XUXPXUXLXUX^.J ( ~ ~ ~ ~ ~ ~ ",
"~ ~ ~ ~ ~ ~ ! ^ kXUXIXUXIXUXq.I / ~ ~ ~ / L c.UXUXLXLXLXLXLXLXLXLXLXLXLXLXLXLXLXUXR.K ( ~ ~ ~ / I w.UXIXUXIXUXkX^ ! ~ ~ ~ ~ ~ ~ ",
"~ ~ ~ ~ ~ / U 5.UXIXUXPXUXuXE ^ ~ ~ ~ ~ ^ W sXUXLXUXUXUXIXIXIXIXIXIXIXIXUXUXUXIXUXVX] Q ^ ~ ~ ~ ^ E uXUXPXUXIXUX5.U / ~ ~ ~ ~ ~ ",
"~ ~ ~ ~ ~ ( J K.UXLXUXLXUXK.J ( ~ ~ ~ ^ W  .AXUXIXUXUXUXUXUXUXUXUXUXUXUXUXUXUXUXUXUX<.Y / ~ ~ ~ ( J K.UXLXUXLXUXK.J ( ~ ~ ~ ~ ~ ",
"~ ~ ~ ~ ~ / P -XUXPXUXUXUX1.Y / ~ ~ ~ ^ W ..AXUXIXUXUXLXFXGXGXGXGXGXGXFXKXUXUXUXUXUX1.Y / ~ ~ ~ / Y 1.UXUXUXPXUX-XP / ~ ~ ~ ~ ~ ",
"~ ~ ~ ~ ~ ~ Q dXUXPXIXUXvX) ! ~ ~ ~ ~ ^ W ..AXUXIXPXUX#X` #.O.O.O.O.#.` W.UXLXUXUXUX<.Y / ~ ~ ~ ~ ! _ vXUXIXPXUXdXQ ~ ~ ~ ~ ~ ~ ",
"~ ~ ~ ~ ^ W { VXUXIXPXUX5XU / ~ ~ ~ ~ ^ W ..SXUXIXLXUX}.D ! E E E E ! D G.UXLXUXUXUX1.Y / ~ ~ ~ ~ / U 6XUXPXIXUXVX{ W ^ ~ ~ ~ ~ ",
"~ ~ ~ ~ ^ R $.JXUXIXLXUXXXK ( ~ ~ ~ ~ ^ W ..SXUXIXLXUX XL ) ^ ^ ^ ^ ) K K.UXLXUXUXUX1.Y / ~ ~ ~ ~ ( K XXUXLXIXUXJX$.R ^ ~ ~ ~ ~ ",
"~ ~ ~ ~ ^ T :.UXUXUXLXUX^.J ( ~ ~ ~ ~ ^ W ..SXUXIXLXUX|.K ( ~ ~ ~ ~ ( J K.UXLXUXUXUX1.Y / ~ ~ ~ ~ ( J /.UXLXUXUXUX:.T ^ ~ ~ ~ ~ ",
"~ ~ ~ ~ / Y ,.UXUXUXLXUXE.J ( ~ ~ ~ ~ ^ W ..SXUXIXLXUX|.K ( ~ ~ ~ ~ ( J K.UXLXUXUXUX1.Y / ~ ~ ~ ~ ( J W.UXLXUXUXUX,.Y / ~ ~ ~ ~ ",
"~ ~ ~ ~ ^ T ;.IXUXUXLXUX^.J ( ~ ~ ~ ~ ^ W ..SXUXIXLXUX|.K ( ~ ~ ~ ~ ( J K.UXLXUXUXUX1.Y / ~ ~ ~ ~ ( J /.UXLXUXUXIX;.T ^ ~ ~ ~ ~ ",
"~ ~ ~ ~ ^ R @.HXUXIXLXUX.XK ( ~ ~ ~ ~ ^ W ..SXUXIXLXUX XL ( ^ ^ ^ ^ ) K K.UXLXUXUXUX1.Y / ~ ~ ~ ~ ( K XXUXLXIXUXHX@.R ^ ~ ~ ~ ~ ",
"~ ~ ~ ~ ^ Q ] MXUXIXPXUX4XU / ~ ~ ~ ~ ^ W ..SXUXIXLXUX}.G ~ W W W W ~ F H.UXLXUXUXUX1.Y / ~ ~ ~ ~ / U 5XUXPXIXUXMX] Q ^ ~ ~ ~ ~ ",
"~ ~ ~ ~ ~ ^ E uXUXPXIXUXcX( ! ~ ~ ~ ~ ^ W ..SXUXIXLXUXOX!  .{ { { {  .! Y.UXLXUXUXUX<.Y / ~ ~ ~ ~ ! ) cXUXIXPXUXuXE ^ ~ ~ ~ ~ ~ ",
"~ ~ ~ ~ ~ ( K @XUXLXUXUXUX,.Y / ~ ~ ~ ^ W ..AXUXIXUXUXHXBXVXVXVXVXVXCXBXFXUXUXUXUXUX1.Y / ~ ~ ~ / Y <.UXUXUXLXUX+XK ( ~ ~ ~ ~ ~ ",
"~ ~ ~ ~ ~ ( K C.UXLXUXLXUXG.J ( ~ ~ ~ ^ W  .AXUXIXUXUXUXUXUXUXUXUXUXUXUXUXUXUXUXUXUX<.Y / ~ ~ ~ ( J H.UXLXUXLXUXV.K ( ~ ~ ~ ~ ~ ",
"~ ~ ~ ~ ~ ^ T :.UXUXUXPXUXrXR ^ ~ ~ ~ ~ ~ Q fXUXPXUXUXUXIXIXIXIXIXIXIXIXUXUXUXIXUXZX{ W ^ ~ ~ ~ ^ R tXUXPXUXUXUX:.T ^ ~ ~ ~ ~ ~ ",
"~ ~ ~ ~ ~ ~ ^ E uXUXPXUXIXUX8.U / ~ ~ ~ ( L B.UXPXLXLXLXLXLXLXLXLXLXLXLXLXLXLXKXUX^.L ( ~ ~ ~ / I 9.UXIXUXPXUXuXE ^ ~ ~ ~ ~ ~ ~ ",
"~ ~ ~ ~ ~ ~ ( J J.UXLXUXPXUX,XP ( ~ ~ ~ ~ ^ Y (.UXUXUXUXUXUXUXUXUXUXUXUXUXUXUXUX%X! ! ~ ~ ~ ~ ( P <XUXPXUXLXUXJ.J ( ~ ~ ~ ~ ~ ~ ",
"~ ~ ~ ~ ~ ~ ^ E o.FXUXIXUXIXUXt.P ( ~ ~ ~ ~ ~ I 8.).+X+X+X+X+X+X+X+X+X+X+X+X].i.Y Q ^ ~ ~ ~ ( L y.UXIXUXIXUXFXX.E ^ ~ ~ ~ ~ ~ ~ ",
"~ ~ ~ ~ ~ ~ ~ ( J ].UXLXUXPXUXlX/ ! ^ ~ ~ ~ ~ / U J K K K K K K K K K K K L J P ^ ^ ~ ~ ~ ^ Q / zXUXPXUXLXUX].J ( ~ ~ ~ ~ ~ ~ ~ ",
"~ ~ ~ ~ ~ ~ ~ ^ E O.GXUXIXUXLXUX+XJ / ~ ~ ~ ~ ~ / ( ( ( ( ( ( ( ( ( ( ( ( ( ( / ~ ~ ~ ~ ^ / K @XUXLXUXIXUXGXO.E ^ ~ ~ ~ ~ ~ ~ ~ ",
"~ ~ ~ ~ ~ ~ ~ ~ ( J P.UXKXUXUXPXUXI.G ( ^ ~ ~ ~ ~ ~ ~ ~ ~ ~ ~ ~ ~ ~ ~ ~ ~ ~ ~ ~ ~ ~ ~ ~ ~ S L.UXJXLXLXHXUXP.J ( ~ ~ ~ ~ ~ ~ ~ ~ ",
"~ ~ ~ ~ ~ ~ ~ ~ ~ ~ W iXUXLXUXUXIXUXG.H ^ / ~ ~ ~ ~ ~ ~ ~ ~ ~ ~ ~ ~ ~ ~ ~ ~ ~ ~ ~ ~ ~ ^ W Q.UXUXUXUXUXUXuXW ~ ~ ~ ~ ~ ~ ~ ~ ~ ~ ",
"~ ~ ~ ~ ~ ~ ~ ~ ~ / Y -.LXUXPXUXIXIXUX^.U R ) ^ ~ ~ ~ ~ ~ ~ ~ ~ ~ ~ ~ ~ ~ ~ ~ ~ ~ ~ ^ W | D.B.N.B.B.N.A.$.T / ~ ~ ~ ~ ~ ~ ~ ~ ~ ",
"~ ~ ~ ~ ~ ~ ~ ~ ~ ~ ( K j.UXIXIXUXIXPXUX6X@.H ! ( ^ ~ ~ ~ ~ ~ ~ ~ ~ ~ ~ ~ ~ ~ ~ ~ ~ ~ ~ Q J J K K K K J E ^ ~ ~ ~ ~ ~ ~ ~ ~ ~ ~ ",
"~ ~ ~ ~ ~ ~ ~ ~ ~ ~ ~ ( J F.UXIXIXUXUXLXUXGXL._ J R ^ ( / / ^ ^ ^ ^ ^ ^ ^ ^ ^ ^ ^ ^ ^ ^ ^ ( ) ( ( ( ( ( ^ ~ ~ ~ ~ ~ ~ ~ ~ ~ ~ ~ ",
"~ ~ ~ ~ ~ ~ ~ ~ ~ ~ ~ ~ / K K.UXUXPXUXUXLXUXUXnXY.&.T J P Y E W W W W W W W W W W W W W W W R E ~ ~ ~ ~ ~ ~ ~ ~ ~ ~ ~ ~ ~ ~ ~ ~ ",
"~ ~ ~ ~ ~ ~ ~ ~ ~ ~ ~ ~ ~ / J m.UXUXKXUXUXIXLXUXUXLXqXW.d.,.O.} { { } | | | | |  .........} %.O.Q ~ ~ ~ ~ ~ ~ ~ ~ ~ ~ ~ ~ ~ ~ ~ ",
"~ ~ ~ ~ ~ ~ ~ ~ ~ ~ ~ ~ ~ ~ ( J 7.nXUXIXPXUXUXIXLXUXUXUXUXUXFXCXVXVXVXZXZXZXZXZXAXSXSXCXZXUXhX1.E ^ ~ ~ ~ ~ ~ ~ ~ ~ ~ ~ ~ ~ ~ ~ ",
"~ ~ ~ ~ ~ ~ ~ ~ ~ ~ ~ ~ ~ ~ ~ ( I ' oXUXUXPXLXIXUXUXPXLXPXUXUXUXUXUXUXUXUXUXUXUXUXUXUXUXUX#X{ U ^ ~ ~ ~ ~ ~ ~ ~ ~ ~ ~ ~ ~ ~ ~ ~ ",
"~ ~ ~ ~ ~ ~ ~ ~ ~ ~ ~ ~ ~ ~ ~ ~ ( Q K 0.0XUXUXUXLXPXIXUXUXUXIXIXIXIXIXIXIXPXLXKXUXUXUXwXq.K W / ~ ~ ~ ~ ~ ~ ~ ~ ~ ~ ~ ~ ~ ~ ~ ~ ",
"~ ~ ~ ~ ~ ~ ~ ~ ~ ~ ~ ~ ~ ~ ~ ~ ~ ^ ( I Y t.:XJXUXUXUXUXPXLXLXLXLXLXLXPXUXUXUXUXLX1Xi.T I ( ^ ~ ~ ~ ~ ~ ~ ~ ~ ~ ~ ~ ~ ~ ~ ~ ~ ~ ",
"~ ~ ~ ~ ~ ~ ~ ~ ~ ~ ~ ~ ~ ~ ~ ~ ~ ~ ~ / ^ I P #.C.>XnXUXUXUXUXUXUXUXUXUXUXmX1XS.%.I P ^ / ~ ~ ~ ~ ~ ~ ~ ~ ~ ~ ~ ~ ~ ~ ~ ~ ~ ~ ~ ",
"~ ~ ~ ~ ~ ~ ~ ~ ~ ~ ~ ~ ~ ~ ~ ~ ~ ~ ~ ~ ~ / / R K P ` >.d.S.R././.E.S.f.,.' I K R / / ~ ~ ~ ~ ~ ~ ~ ~ ~ ~ ~ ~ ~ ~ ~ ~ ~ ~ ~ ~ ~ ",
"~ ~ ~ ~ ~ ~ ~ ~ ~ ~ ~ ~ ~ ~ ~ ~ ~ ~ ~ ~ ~ ~ ~ ^ ( / Q Y P K J J J J K L Y Q / ( ^ ~ ~ ~ ~ ~ ~ ~ ~ ~ ~ ~ ~ ~ ~ ~ ~ ~ ~ ~ ~ ~ ~ ~ ",
"~ ~ ~ ~ ~ ~ ~ ~ ~ ~ ~ ~ ~ ~ ~ ~ ~ ~ ~ ~ ~ ~ ~ ~ ~ ~ ^ ^ / ( ( ( ( ( ( / / ^ ~ ~ ~ ~ ~ ~ ~ ~ ~ ~ ~ ~ ~ ~ ~ ~ ~ ~ ~ ~ ~ ~ ~ ~ ~ ~ ",
"~ ~ ~ ~ ~ ~ ~ ~ ~ ~ ~ ~ ~ ~ ~ ~ ~ ~ ~ ~ ~ ~ ~ ~ ~ ~ ~ ~ ~ ~ ~ ~ ~ ~ ~ ~ ~ ~ ~ ~ ~ ~ ~ ~ ~ ~ ~ ~ ~ ~ ~ ~ ~ ~ ~ ~ ~ ~ ~ ~ ~ ~ ~ ~ ",
"~ ~ ~ ~ ~ ~ ~ ~ ~ ~ ~ ~ ~ ~ ~ ~ ~ ~ ~ ~ ~ ~ ~ ~ ~ ~ ~ ~ ~ ~ ~ ~ ~ ~ ~ ~ ~ ~ ~ ~ ~ ~ ~ ~ ~ ~ ~ ~ ~ ~ ~ ~ ~ ~ ~ ~ ~ ~ ~ ~ ~ ~ ~ ~ ",
"~ ~ ~ ~ ~ ~ ~ ~ ~ ~ ~ ~ ~ ~ ~ ~ ~ ~ ~ ~ ~ ~ ~ ~ ~ ~ ~ ~ ~ ~ ~ ~ ~ ~ ~ ~ ~ ~ ~ ~ ~ ~ ~ ~ ~ ~ ~ ~ ~ ~ ~ ~ ~ ~ ~ ~ ~ ~ ~ ~ ~ ~ ~ ~ ",
"~ ~ ~ ~ ~ ~ ~ ~ ~ ~ ~ ~ ~ ~ ~ ~ ~ ~ ~ ~ ~ ~ ~ ~ ~ ~ ~ ~ ~ ~ ~ ~ ~ ~ ~ ~ ~ ~ ~ ~ ~ ~ ~ ~ ~ ~ ~ ~ ~ ~ ~ ~ ~ ~ ~ ~ ~ ~ ~ ~ ~ ~ ~ ~ ",
"~ ~ ~ ~ ~ ~ ~ ~ ~ ~ ~ ~ ~ ~ ~ ~ ~ ~ ~ ~ ~ ~ ~ ~ ~ ~ ~ ~ ~ ~ ~ ~ ~ ~ ~ ~ ~ ~ ~ ~ ~ ~ ~ ~ ~ ~ ~ ~ ~ ~ ~ ~ ~ ~ ~ ~ ~ ~ ~ ~ ~ ~ ~ ~ "
};
